<svg width="31" height="30" viewBox="0 0 31 30" fill="none" xmlns="http://www.w3.org/2000/svg">
<path d="M15.411 2.45996C8.62049 2.45996 3.10938 7.97107 3.10938 14.7615C3.10938 21.552 8.62049 27.0631 15.411 27.0631C22.2014 27.0631 27.7125 21.552 27.7125 14.7615C27.7125 7.97107 22.2014 2.45996 15.411 2.45996ZM21.1189 10.825C20.9344 12.7687 20.1348 17.4925 19.7288 19.6699C19.5566 20.5925 19.2122 20.9 18.8923 20.9369C18.1788 20.9985 17.6375 20.4695 16.9487 20.0143C15.8661 19.3008 15.251 18.858 14.2054 18.1691C12.9875 17.3695 13.7748 16.9266 14.476 16.2131C14.6606 16.0286 17.8098 13.1623 17.8713 12.904C17.8798 12.8649 17.8787 12.8243 17.868 12.7857C17.8572 12.7471 17.8373 12.7117 17.8098 12.6826C17.736 12.6211 17.6375 12.6457 17.5514 12.658C17.4407 12.6826 15.7185 13.8266 12.3602 16.0901C11.8681 16.4223 11.4252 16.5945 11.0316 16.5822C10.5887 16.5699 9.75223 16.3361 9.12485 16.127C8.34985 15.881 7.74707 15.7457 7.79628 15.3151C7.82088 15.0937 8.12842 14.8723 8.7066 14.6385C12.2987 13.0762 14.6852 12.0429 15.8784 11.5508C19.2983 10.1238 19.9995 9.87782 20.4669 9.87782C20.5653 9.87782 20.7991 9.90242 20.9467 10.0254C21.0697 10.1238 21.1066 10.2592 21.1189 10.3576C21.1066 10.4314 21.1312 10.6528 21.1189 10.825Z" fill="#100E3A"/>
</svg>
