<svg width="31" height="30" viewBox="0 0 31 30" fill="none" xmlns="http://www.w3.org/2000/svg">
<path fill-rule="evenodd" clip-rule="evenodd" d="M21.3393 3.23284C17.469 2.3677 13.4554 2.3677 9.58511 3.23284L9.16809 3.32511C8.07942 3.56851 7.07954 4.10894 6.27951 4.88638C5.47949 5.66382 4.91065 6.64782 4.63618 7.72907C3.65513 11.5949 3.65513 15.6445 4.63618 19.5103C4.89793 20.5415 5.42767 21.4852 6.17171 22.2456C6.91574 23.0061 7.84761 23.5563 8.87285 23.8405L9.44487 27.2554C9.46313 27.3638 9.51013 27.4654 9.58097 27.5495C9.65181 27.6336 9.7439 27.6972 9.84766 27.7336C9.95141 27.77 10.063 27.778 10.1709 27.7566C10.2788 27.7352 10.3789 27.6854 10.461 27.6121L13.8205 24.6069C16.3425 24.7607 18.8735 24.5591 21.3393 24.0078L21.7575 23.9155C22.8462 23.6721 23.8461 23.1317 24.6461 22.3542C25.4461 21.5768 26.015 20.5928 26.2894 19.5115C27.2704 15.6457 27.2704 11.5961 26.2894 7.7303C26.0149 6.64889 25.4458 5.66478 24.6456 4.88733C23.8453 4.10988 22.8452 3.56953 21.7563 3.32634L21.3393 3.23284ZM10.6234 7.62943C10.3947 7.59615 10.1616 7.64217 9.96277 7.75983H9.94555C9.48424 8.03046 9.06844 8.37122 8.71416 8.77225C8.41892 9.113 8.259 9.45745 8.21717 9.78959C8.19257 9.98641 8.20979 10.1857 8.26761 10.3739L8.28975 10.3862C8.6219 11.3617 9.05491 12.3003 9.58388 13.1836C10.2659 14.4242 11.1053 15.5716 12.0811 16.5973L12.1106 16.6391L12.1574 16.6736L12.1857 16.7068L12.2201 16.7363C13.2494 17.7151 14.3995 18.5584 15.6424 19.2458C17.0632 20.0196 17.9256 20.3849 18.4435 20.5375V20.5449C18.5948 20.5916 18.7326 20.6125 18.8716 20.6125C19.3126 20.5799 19.7301 20.4006 20.0575 20.1032C20.4573 19.749 20.7955 19.3319 21.0588 18.8682V18.8595C21.3061 18.3921 21.2224 17.9517 20.8657 17.6528C20.1491 17.0267 19.3743 16.4705 18.5517 15.992C18.0006 15.6931 17.4409 15.874 17.2146 16.1766L16.7311 16.7867C16.4826 17.0893 16.0324 17.0475 16.0324 17.0475L16.0201 17.0549C12.6605 16.1975 11.7637 12.7961 11.7637 12.7961C11.7637 12.7961 11.7219 12.3336 12.0331 12.0974L12.6384 11.6102C12.9287 11.374 13.1304 10.8155 12.8192 10.2644C12.3439 9.44116 11.7889 8.66655 11.1622 7.95173C11.0255 7.7835 10.8338 7.66893 10.6209 7.6282L10.6234 7.62943ZM16.2993 6.15078C16.1362 6.15078 15.9797 6.21558 15.8644 6.33093C15.749 6.44628 15.6842 6.60273 15.6842 6.76586C15.6842 6.92899 15.749 7.08544 15.8644 7.20079C15.9797 7.31614 16.1362 7.38094 16.2993 7.38094C17.8555 7.38094 19.1471 7.88899 20.1694 8.86328C20.6947 9.39594 21.1043 10.027 21.3725 10.7184C21.6419 11.4109 21.7649 12.1503 21.7329 12.8908C21.7295 12.9716 21.7421 13.0522 21.7699 13.1282C21.7976 13.2041 21.8401 13.2738 21.8948 13.3333C22.0053 13.4535 22.159 13.5249 22.3222 13.5317C22.4853 13.5386 22.6445 13.4804 22.7647 13.3698C22.8849 13.2593 22.9562 13.1056 22.9631 12.9425C23.0012 12.0315 22.85 11.1226 22.519 10.273C22.1865 9.41948 21.6824 8.64323 21.0379 7.99233L21.0256 7.98003C19.7573 6.76832 18.1519 6.15078 16.2993 6.15078ZM16.2575 8.17316C16.0944 8.17316 15.9379 8.23796 15.8226 8.35331C15.7072 8.46866 15.6424 8.62511 15.6424 8.78824C15.6424 8.95137 15.7072 9.10782 15.8226 9.22317C15.9379 9.33852 16.0944 9.40332 16.2575 9.40332H16.2784C17.4003 9.48328 18.2171 9.85725 18.7892 10.4711C19.3759 11.1034 19.6798 11.8895 19.6564 12.8613C19.6527 13.0244 19.7139 13.1824 19.8266 13.3004C19.9393 13.4184 20.0942 13.4868 20.2574 13.4905C20.4205 13.4943 20.5784 13.4331 20.6964 13.3204C20.8144 13.2077 20.8828 13.0527 20.8866 12.8896C20.9161 11.6139 20.5052 10.5129 19.6909 9.63459V9.63213C18.858 8.73903 17.7152 8.26665 16.3399 8.17439L16.319 8.17193L16.2575 8.17316ZM16.2341 10.2337C16.1518 10.2264 16.0689 10.2358 15.9903 10.2613C15.9117 10.2868 15.839 10.3279 15.7766 10.3821C15.7143 10.4363 15.6634 10.5025 15.6272 10.5768C15.591 10.651 15.5701 10.7318 15.5658 10.8144C15.5615 10.8969 15.5739 10.9794 15.6022 11.0571C15.6305 11.1347 15.6742 11.2058 15.7306 11.2662C15.787 11.3266 15.855 11.375 15.9305 11.4085C16.006 11.4421 16.0875 11.46 16.1702 11.4614C16.6844 11.4884 17.0128 11.6434 17.2195 11.8513C17.4274 12.0605 17.5824 12.3963 17.6107 12.9216C17.6122 13.0041 17.6303 13.0855 17.664 13.1609C17.6977 13.2363 17.7461 13.3041 17.8066 13.3604C17.867 13.4166 17.9381 13.4601 18.0157 13.4883C18.0933 13.5165 18.1758 13.5287 18.2583 13.5243C18.3407 13.52 18.4214 13.499 18.4956 13.4628C18.5698 13.4266 18.6359 13.3758 18.69 13.3134C18.7442 13.2511 18.7852 13.1785 18.8107 13.1C18.8362 13.0215 18.8456 12.9386 18.8384 12.8564C18.799 12.1183 18.5677 11.4663 18.0941 10.9865C17.618 10.5068 16.9698 10.273 16.2341 10.2337Z" fill="#100E3A"/>
</svg>
