<svg width="30" height="30" viewBox="0 0 30 30" fill="none" xmlns="http://www.w3.org/2000/svg">
<path d="M26.9785 7.99383C27.5407 10.186 27.5407 14.7622 27.5407 14.7622C27.5407 14.7622 27.5407 19.3384 26.9785 21.5305C26.666 22.7422 25.752 23.6956 24.5944 24.0179C22.4921 24.6034 15.2391 24.6034 15.2391 24.6034C15.2391 24.6034 7.98976 24.6034 5.88373 24.0179C4.72123 23.6907 3.80845 22.7385 3.49968 21.5305C2.9375 19.3384 2.9375 14.7622 2.9375 14.7622C2.9375 14.7622 2.9375 10.186 3.49968 7.99383C3.81214 6.78213 4.72615 5.82876 5.88373 5.50645C7.98976 4.9209 15.2391 4.9209 15.2391 4.9209C15.2391 4.9209 22.4921 4.9209 24.5944 5.50645C25.7569 5.83368 26.6697 6.78582 26.9785 7.99383ZM12.7788 19.0677L20.1597 14.7622L12.7788 10.4566V19.0677Z" fill="#100E3A"/>
</svg>
